<svg width="224" height="224" viewBox="0 0 224 224" fill="none" xmlns="http://www.w3.org/2000/svg">
<path d="M78.3722 104.86C80.1928 104.496 81.7943 103.424 82.8244 101.879C83.8544 100.334 84.2287 98.4438 83.8648 96.6232C83.501 94.8026 82.4287 93.2011 80.8841 92.171C79.3394 91.1409 77.4488 90.7666 75.6282 91.1305C67.2002 92.8105 60.8348 98.7092 57.4468 106.615C54.0868 114.436 53.5922 124.217 56.2148 134.689C56.4196 135.599 56.8043 136.459 57.3462 137.219C57.8881 137.978 58.5764 138.621 59.3705 139.111C60.1646 139.601 61.0485 139.927 61.9704 140.07C62.8922 140.213 63.8334 140.17 64.7385 139.944C65.6437 139.718 66.4945 139.314 67.2412 138.755C67.9878 138.195 68.615 137.492 69.0861 136.687C69.5572 135.882 69.8625 134.991 69.9842 134.066C70.1059 133.141 70.0416 132.201 69.7948 131.301C67.7415 123.107 68.4135 116.555 70.3082 112.131C72.1748 107.781 75.1428 105.513 78.3722 104.86ZM51.0628 31.9105C50.6646 38.5369 51.6349 45.1744 53.9134 51.4094C56.192 57.6445 59.7299 63.3436 64.3068 68.1519C55.4155 70.7011 47.4552 75.776 41.3916 82.7608C35.3279 89.7455 31.4217 98.3399 30.1468 107.501C27.0748 129.483 31.5848 151.856 42.9335 170.931L46.2002 176.437C46.324 176.64 46.4579 176.836 46.6015 177.025L59.8175 194.815C62.6167 198.585 66.2041 201.7 70.3299 203.942C74.4556 206.185 79.0206 207.501 83.7069 207.8C88.3933 208.098 93.0884 207.372 97.4653 205.671C101.842 203.97 105.796 201.335 109.051 197.951C109.431 197.555 109.888 197.24 110.393 197.025C110.898 196.81 111.442 196.699 111.991 196.699C112.54 196.699 113.083 196.81 113.589 197.025C114.094 197.24 114.55 197.555 114.931 197.951C118.186 201.335 122.139 203.97 126.516 205.671C130.893 207.372 135.588 208.098 140.275 207.8C144.961 207.501 149.526 206.185 153.652 203.942C157.778 201.7 161.365 198.585 164.164 194.815L177.38 177.016C177.521 176.827 177.652 176.63 177.772 176.428L181.048 170.921C192.404 151.852 196.924 129.483 193.863 107.501C192.959 101.024 190.736 94.8012 187.33 89.2181C183.924 83.635 179.408 78.8104 174.063 75.043C168.717 71.2756 162.655 68.6455 156.251 67.3157C149.848 65.9859 143.24 65.9846 136.836 67.3119L119.093 70.9892H119.065C119.345 63.7092 120.484 55.8692 122.715 49.1679C125.421 41.0665 129.173 36.1945 133.355 34.4585C135.069 33.7432 136.429 32.3761 137.135 30.6582C137.841 28.9402 137.836 27.012 137.121 25.2979C136.405 23.5837 135.038 22.2239 133.32 21.5176C131.603 20.8114 129.674 20.8165 127.96 21.5319C118.141 25.6292 112.56 35.3452 109.434 44.7345L109.004 46.0599C106.706 41.6186 103.737 37.5577 100.203 34.0199C95.3624 29.1739 89.5477 25.4116 83.1438 22.982C76.7399 20.5523 69.8929 19.5109 63.0562 19.9265C59.9362 20.1061 56.9906 21.4246 54.7781 23.6318C52.5657 25.8391 51.2404 28.7816 51.0535 31.9012L51.0628 31.9105ZM64.9975 33.8425C69.681 33.7074 74.3427 34.5319 78.6957 36.2654C83.0487 37.9989 87.001 40.6047 90.3095 43.9225C93.6273 47.231 96.2331 51.1833 97.9666 55.5363C99.7001 59.8893 100.525 64.551 100.389 69.2345C98.6967 69.2804 97.0029 69.2025 95.3215 69.0012L89.5628 67.8065C84.0893 66.1736 79.1102 63.1996 75.0775 59.1545C71.7597 55.8461 69.1539 51.8938 67.4204 47.5408C65.6869 43.1877 64.8623 38.5261 64.9975 33.8425ZM84.3082 81.0132L86.1935 81.4052C88.4335 82.0399 90.7108 82.5159 93.0068 82.8239L102.06 84.6905C108.617 86.0489 115.383 86.0489 121.94 84.6905L139.692 81.0132C144.22 80.0747 148.893 80.0758 153.42 81.0163C157.948 81.9568 162.235 83.8167 166.014 86.4809C169.794 89.1451 172.987 92.5568 175.394 96.5048C177.802 100.453 179.374 104.853 180.012 109.433C182.633 128.265 178.758 147.428 169.027 163.763L165.937 168.961L152.936 186.471C151.35 188.608 149.316 190.374 146.977 191.645C144.638 192.916 142.051 193.662 139.394 193.83C136.738 193.999 134.076 193.587 131.595 192.622C129.115 191.657 126.874 190.163 125.029 188.244C123.343 186.489 121.32 185.093 119.081 184.139C116.842 183.186 114.434 182.694 112 182.694C109.567 182.694 107.158 183.186 104.919 184.139C102.68 185.093 100.657 186.489 98.9708 188.244C97.1264 190.163 94.8857 191.657 92.4049 192.622C89.924 193.587 87.2627 193.999 84.6062 193.83C81.9497 193.662 79.3619 192.916 77.0231 191.645C74.6844 190.374 72.6508 188.608 71.0642 186.471L58.0628 168.961L54.9735 163.763C45.2452 147.427 41.3738 128.264 43.9975 109.433C44.6359 104.854 46.2074 100.455 48.6146 96.5075C51.0217 92.5602 54.2134 89.1489 57.9921 86.4849C61.7708 83.8208 66.056 81.9606 70.5826 81.0195C75.1092 80.0783 79.7807 80.0762 84.3082 81.0132Z" fill="#171717"/>
</svg>
