<svg width="208" height="208" viewBox="0 0 208 208" fill="none" xmlns="http://www.w3.org/2000/svg">
<path d="M186.056 27.6772C179.049 10.4262 159.143 2.02173 141.586 8.90198C128.196 14.1572 120.065 26.79 120.058 40.1377H90.0932L78.9555 29.195C70.6777 21.057 57.2455 21.0537 48.9645 29.195L19.5 58.1395L23.998 62.5595L53.4625 33.6117C59.2605 27.9145 68.6595 27.9177 74.4575 33.6117L81.0972 40.1377H73.554C88.7575 75.4717 42.536 139.467 96.3072 150.222C96.2715 150.238 96.2292 150.254 96.2617 150.267C112.697 155.961 111.819 169.543 106.454 182.328C100.769 195.871 87.1552 198.341 87.0285 198.419C86.6255 198.653 86.3882 199.394 86.4467 200.164C86.5215 200.931 86.8692 201.5 87.2885 201.5H141.258C141.674 201.5 142.028 200.931 142.093 200.164C142.161 199.394 141.911 198.653 141.511 198.419C141.381 198.341 127.777 195.871 122.089 182.328C116.724 169.54 115.849 155.961 132.278 150.267C132.317 150.254 132.268 150.238 132.233 150.222C171.363 142.399 157.553 106.382 152.984 73.7297C157.753 73.9152 162.509 73.1118 166.952 71.3702C184.506 64.4932 193.056 44.9282 186.056 27.6772ZM114.273 146.032C46.3157 146.032 94.0712 77.8247 80.119 43.1472H84.162L111.195 69.7062C104.682 67.7497 97.838 66.154 90.3597 66.154C89.245 66.154 88.1237 66.1897 86.9765 66.2645C86.7392 78.569 83.2877 92.5667 82.0592 105.089C80.1287 124.826 83.7427 140.907 114.27 140.907C139.685 140.907 146.442 129.756 146.884 114.637C147.212 103.282 143.981 89.6872 142.395 76.8757C141.937 76.8952 141.485 76.9017 141.027 76.9017C135.479 76.9017 130.032 75.6082 124.481 73.928L93.1482 43.144H120.182C120.474 46.3095 121.212 49.4847 122.473 52.5885C126.799 63.2517 136.058 70.522 146.643 72.9075C150.858 106.948 165.714 146.032 114.273 146.032ZM139.561 97.5815L140.406 96.7527C141.121 101.475 141.706 106.022 141.888 110.256C141.606 110.263 141.316 110.269 141.024 110.269C134.186 110.269 127.153 107.972 119.707 105.537C111.104 102.729 101.351 99.5412 90.3662 99.5412C89.4822 99.5412 88.6015 99.5607 87.7142 99.603C88.14 96.5577 88.647 93.4377 89.1702 90.1975C90.1972 83.8502 91.2535 77.3307 91.7117 71.0452C100.565 71.2955 108.699 73.9572 116.571 76.5345C117.354 76.7912 118.128 77.0317 118.908 77.282L139.561 97.5815ZM131.404 80.7237C133.594 81.1625 135.798 81.52 138.044 81.676C138.369 83.886 138.723 86.0765 139.074 88.2605L131.404 80.7237ZM140.315 66.1605C141.199 66.0467 141.791 65.2797 142.441 65.2472C142.62 65.2375 144.033 62.4002 145.736 58.7765C145.727 59.5337 145.717 60.291 145.73 61.0612C144.563 63.8497 143.679 66.0857 143.552 66.7877C143.445 67.4312 144.329 67.805 144.537 68.4257C144.631 68.715 145.272 68.949 146.23 69.1375L146.393 70.6715C136.783 68.2697 128.427 61.5682 124.468 51.8215C123.348 49.0472 122.634 46.1256 122.349 43.1472H124.264C124.358 46.134 124.621 48.5617 125.037 48.8737C125.739 49.4002 126.721 49.267 127.198 49.6895C127.452 49.9072 138.609 45.8707 145.327 43.1472H147.001C140.728 45.5425 129.282 49.9787 127.796 50.9862C127.254 51.3665 127.608 52.2407 127.306 52.816C126.487 54.35 138.882 66.3327 140.315 66.1605ZM166.15 69.4137C161.872 71.088 157.286 71.8336 152.698 71.601C152.617 70.9575 152.542 70.314 152.467 69.6737C157.43 69.8167 162.968 69.534 163.455 68.923C164.008 68.2372 163.865 67.2915 164.3 66.8235C164.635 66.466 155.655 43.6152 155.106 44.4115C154.635 45.0907 153.962 44.665 153.523 44.3627C153.936 42.9197 154.404 41.5027 154.989 40.1377H149.922C149.935 39.6275 150.478 39.0977 150.543 38.893C150.543 38.893 129.698 29.9685 127.224 29.5525C126.565 29.4355 126.181 30.2967 125.544 30.4917C124.663 30.7712 124.254 35.5292 124.221 40.1377H122.2C122.206 27.6187 129.828 15.7822 142.379 10.8585C158.834 4.40723 177.505 12.282 184.067 28.4572C190.629 44.626 182.611 62.969 166.15 69.4137Z" fill="#171717"/>
<path d="M164.191 11.8754C163.648 10.2276 146.147 10.2634 145.263 11.3716C144.72 12.0574 144.86 13.0096 144.424 13.4744C144.09 13.8351 153.079 36.6859 153.622 35.8896C154.243 34.9861 155.244 36.0521 155.543 36.1431C155.543 36.1431 164.734 15.9086 165.166 13.5036C165.28 12.8666 164.396 12.4896 164.191 11.8754ZM183.584 31.2064C182.878 30.6734 181.903 30.8066 181.413 30.3874C181.049 30.0624 157.515 38.7886 158.331 39.3119C159.264 39.9196 158.162 40.8881 158.061 41.1806C158.061 41.1806 178.917 50.1019 181.383 50.5276C182.05 50.6381 182.433 49.7769 183.067 49.5754C184.76 49.0521 184.728 32.0579 183.584 31.2064ZM141.464 13.9554C139.884 13.1624 127.531 25.1971 127.713 26.5881C127.83 27.4494 128.61 28.0246 128.652 28.6551C128.685 29.1394 151.669 39.1299 151.477 38.1906C151.262 37.1214 152.748 37.1994 153.027 37.0564C153.027 37.0564 144.785 16.4319 143.345 14.4364C142.952 13.9001 142.052 14.2446 141.464 13.9554ZM157.84 42.4416C158.058 43.5109 156.57 43.4426 156.29 43.5856C156.29 43.5856 164.535 64.2004 165.978 66.2024C166.362 66.7289 167.262 66.3876 167.847 66.6769C169.43 67.4666 181.78 55.4286 181.598 54.0409C181.491 53.1829 180.694 52.6109 180.662 51.9739C180.636 51.4961 157.652 41.5089 157.84 42.4416ZM156.479 36.8711C157.584 36.6534 157.512 38.0996 157.655 38.3726C157.655 38.3726 178.887 30.3711 180.951 28.9671C181.494 28.5966 181.14 27.7126 181.439 27.1406C182.254 25.6066 169.859 13.6206 168.429 13.7929C167.545 13.9034 166.95 14.6736 166.3 14.7126C165.813 14.7386 155.526 37.0531 156.479 36.8711Z" fill="#171717"/>
</svg>
