<svg width="218" height="218" viewBox="0 0 218 218" fill="none" xmlns="http://www.w3.org/2000/svg">
<path d="M102.188 64.7188C80.5961 69.9175 62.1002 86.9914 50.966 95.9839C47.7538 93.0077 44.3687 90.2239 40.8282 87.6471C25.3468 76.3383 6.8125 74.9375 6.8125 74.9375C6.8125 74.9375 11.6536 96.878 24.4228 108.928C11.6536 120.981 6.8125 142.922 6.8125 142.922C6.8125 142.922 25.3468 141.521 40.8282 130.212C44.3387 127.658 47.6955 124.898 50.8809 121.948C61.9938 130.949 80.5748 148.065 102.188 153.281L95.375 177.125C112.164 174.285 128.952 162.006 135.705 156.581C190.75 154.133 211.188 118.793 211.188 109C211.188 99.6328 190.75 63.8672 135.871 61.4275C129.233 56.1095 112.304 43.7362 95.375 40.875L102.188 64.7188Z" stroke="#171717" stroke-width="4" stroke-linejoin="round"/>
<path d="M177.125 108.996C180.887 108.996 183.938 105.946 183.938 102.183C183.938 98.4207 180.887 95.3706 177.125 95.3706C173.363 95.3706 170.312 98.4207 170.312 102.183C170.312 105.946 173.363 108.996 177.125 108.996Z" fill="#171717"/>
<path d="M161.103 151.578C153.596 138.644 149.643 123.955 149.643 109C149.643 94.0452 153.596 79.3562 161.103 66.4219" stroke="#171717" stroke-width="5" stroke-miterlimit="20" stroke-linecap="round"/>
</svg>
