<svg width="224" height="96" viewBox="0 0 224 96" fill="none" xmlns="http://www.w3.org/2000/svg">
<path d="M48 73.5H16.5V52.5H48M95.25 52.5V42L90 15.75H6L0.75 42V52.5H6V84H58.5V52.5H79.5V84H90V52.5M90 0H6V10.5H90V0Z" fill="black"/>
<path d="M83.0341 84V49.0909H106.148V55.1761H90.4148V63.4943H104.614V69.5795H90.4148V84H83.0341ZM120.884 84.5114C118.236 84.5114 115.946 83.9489 114.014 82.8239C112.094 81.6875 110.611 80.108 109.565 78.0852C108.52 76.0511 107.997 73.6932 107.997 71.0114C107.997 68.3068 108.52 65.9432 109.565 63.9205C110.611 61.8864 112.094 60.3068 114.014 59.1818C115.946 58.0455 118.236 57.4773 120.884 57.4773C123.531 57.4773 125.815 58.0455 127.736 59.1818C129.668 60.3068 131.156 61.8864 132.202 63.9205C133.247 65.9432 133.77 68.3068 133.77 71.0114C133.77 73.6932 133.247 76.0511 132.202 78.0852C131.156 80.108 129.668 81.6875 127.736 82.8239C125.815 83.9489 123.531 84.5114 120.884 84.5114ZM120.918 78.8864C122.122 78.8864 123.128 78.5455 123.935 77.8636C124.741 77.1705 125.349 76.2273 125.759 75.0341C126.179 73.8409 126.389 72.483 126.389 70.9602C126.389 69.4375 126.179 68.0795 125.759 66.8864C125.349 65.6932 124.741 64.75 123.935 64.0568C123.128 63.3636 122.122 63.017 120.918 63.017C119.702 63.017 118.679 63.3636 117.849 64.0568C117.031 64.75 116.412 65.6932 115.991 66.8864C115.582 68.0795 115.378 69.4375 115.378 70.9602C115.378 72.483 115.582 73.8409 115.991 75.0341C116.412 76.2273 117.031 77.1705 117.849 77.8636C118.679 78.5455 119.702 78.8864 120.918 78.8864ZM150.321 84.5114C147.673 84.5114 145.384 83.9489 143.452 82.8239C141.531 81.6875 140.048 80.108 139.003 78.0852C137.957 76.0511 137.435 73.6932 137.435 71.0114C137.435 68.3068 137.957 65.9432 139.003 63.9205C140.048 61.8864 141.531 60.3068 143.452 59.1818C145.384 58.0455 147.673 57.4773 150.321 57.4773C152.969 57.4773 155.253 58.0455 157.173 59.1818C159.105 60.3068 160.594 61.8864 161.639 63.9205C162.685 65.9432 163.207 68.3068 163.207 71.0114C163.207 73.6932 162.685 76.0511 161.639 78.0852C160.594 80.108 159.105 81.6875 157.173 82.8239C155.253 83.9489 152.969 84.5114 150.321 84.5114ZM150.355 78.8864C151.56 78.8864 152.565 78.5455 153.372 77.8636C154.179 77.1705 154.787 76.2273 155.196 75.0341C155.616 73.8409 155.827 72.483 155.827 70.9602C155.827 69.4375 155.616 68.0795 155.196 66.8864C154.787 65.6932 154.179 64.75 153.372 64.0568C152.565 63.3636 151.56 63.017 150.355 63.017C149.139 63.017 148.116 63.3636 147.287 64.0568C146.469 64.75 145.849 65.6932 145.429 66.8864C145.02 68.0795 144.815 69.4375 144.815 70.9602C144.815 72.483 145.02 73.8409 145.429 75.0341C145.849 76.2273 146.469 77.1705 147.287 77.8636C148.116 78.5455 149.139 78.8864 150.355 78.8864ZM177.577 84.4261C175.588 84.4261 173.787 83.9148 172.173 82.892C170.571 81.858 169.298 80.3409 168.355 78.3409C167.423 76.3295 166.957 73.8636 166.957 70.9432C166.957 67.9432 167.44 65.4489 168.406 63.4602C169.372 61.4602 170.656 59.9659 172.259 58.9773C173.872 57.9773 175.639 57.4773 177.56 57.4773C179.026 57.4773 180.247 57.7273 181.224 58.2273C182.213 58.7159 183.009 59.3295 183.611 60.0682C184.224 60.7955 184.69 61.5114 185.009 62.2159H185.23V49.0909H192.474V84H185.315V79.8068H185.009C184.668 80.5341 184.185 81.2557 183.56 81.9716C182.946 82.6761 182.145 83.2614 181.156 83.7273C180.179 84.1932 178.986 84.4261 177.577 84.4261ZM179.878 78.6477C181.048 78.6477 182.037 78.3295 182.844 77.6932C183.662 77.0455 184.287 76.142 184.719 74.983C185.162 73.8239 185.384 72.4659 185.384 70.9091C185.384 69.3523 185.168 68 184.736 66.8523C184.304 65.7045 183.679 64.8182 182.861 64.1932C182.043 63.5682 181.048 63.2557 179.878 63.2557C178.685 63.2557 177.679 63.5795 176.861 64.2273C176.043 64.875 175.423 65.7727 175.003 66.9205C174.582 68.0682 174.372 69.3977 174.372 70.9091C174.372 72.4318 174.582 73.7784 175.003 74.9489C175.435 76.108 176.054 77.017 176.861 77.6761C177.679 78.3239 178.685 78.6477 179.878 78.6477ZM202.928 93.8182C202.007 93.8182 201.143 93.7443 200.337 93.5966C199.541 93.4602 198.882 93.2841 198.359 93.0682L199.996 87.6477C200.848 87.9091 201.615 88.0511 202.297 88.0739C202.99 88.0966 203.587 87.9375 204.087 87.5966C204.598 87.2557 205.013 86.6761 205.331 85.858L205.757 84.75L196.365 57.8182H204.001L209.422 77.0455H209.695L215.166 57.8182H222.854L212.678 86.8295C212.189 88.2386 211.524 89.4659 210.683 90.5114C209.854 91.5682 208.803 92.3807 207.53 92.9489C206.257 93.5284 204.723 93.8182 202.928 93.8182Z" fill="black"/>
</svg>
